<svg xmlns="http://www.w3.org/2000/svg" width="360" height="210" viewBox="0 0 360 210"><rect width="360" height="210" rx="6" fill="#1a1b27"/><text x="20" y="30" font-family="Segoe UI,sans-serif" font-size="17" font-weight="600" fill="#70a5fd">Most Used Languages</text><path fill="#f1e05a" d="M95.00,45.00 A70,70 0 0 1 156.51,148.41 L133.67,136.00 A44,44 0 0 0 95.00,71.00 Z"/><path fill="#F05138" d="M156.51,148.41 A70,70 0 0 1 41.67,160.34 L61.48,143.50 A44,44 0 0 0 133.67,136.00 Z"/><path fill="#3572A5" d="M41.67,160.34 A70,70 0 0 1 29.08,91.45 L53.57,100.20 A44,44 0 0 0 61.48,143.50 Z"/><path fill="#e34c26" d="M29.08,91.45 A70,70 0 0 1 50.80,60.72 L67.22,80.88 A44,44 0 0 0 53.57,100.20 Z"/><path fill="#f34b7d" d="M50.80,60.72 A70,70 0 0 1 66.52,51.05 L77.10,74.80 A44,44 0 0 0 67.22,80.88 Z"/><path fill="#A97BFF" d="M66.52,51.05 A70,70 0 0 1 75.46,47.78 L82.72,72.75 A44,44 0 0 0 77.10,74.80 Z"/><path fill="#b07219" d="M75.46,47.78 A70,70 0 0 1 83.81,45.90 L87.97,71.57 A44,44 0 0 0 82.72,72.75 Z"/><path fill="#89e051" d="M83.81,45.90 A70,70 0 0 1 89.64,45.21 L91.63,71.13 A44,44 0 0 0 87.97,71.57 Z"/><path fill="#565f89" d="M89.64,45.21 A70,70 0 0 1 95.00,45.00 L95.00,71.00 A44,44 0 0 0 91.63,71.13 Z"/><circle cx="200" cy="54" r="5" fill="#f1e05a"/><text x="212" y="58" font-family="Segoe UI,sans-serif" font-size="12" fill="#c0caf5">JavaScript <tspan fill="#8a93b8">32.9%</tspan></text><circle cx="200" cy="71" r="5" fill="#F05138"/><text x="212" y="75" font-family="Segoe UI,sans-serif" font-size="12" fill="#c0caf5">Swift <tspan fill="#8a93b8">30.9%</tspan></text><circle cx="200" cy="88" r="5" fill="#3572A5"/><text x="212" y="92" font-family="Segoe UI,sans-serif" font-size="12" fill="#c0caf5">Python <tspan fill="#8a93b8">16.7%</tspan></text><circle cx="200" cy="105" r="5" fill="#e34c26"/><text x="212" y="109" font-family="Segoe UI,sans-serif" font-size="12" fill="#c0caf5">HTML <tspan fill="#8a93b8">8.7%</tspan></text><circle cx="200" cy="122" r="5" fill="#f34b7d"/><text x="212" y="126" font-family="Segoe UI,sans-serif" font-size="12" fill="#c0caf5">C++ <tspan fill="#8a93b8">4.2%</tspan></text><circle cx="200" cy="139" r="5" fill="#A97BFF"/><text x="212" y="143" font-family="Segoe UI,sans-serif" font-size="12" fill="#c0caf5">Kotlin <tspan fill="#8a93b8">2.2%</tspan></text><circle cx="200" cy="156" r="5" fill="#b07219"/><text x="212" y="160" font-family="Segoe UI,sans-serif" font-size="12" fill="#c0caf5">Java <tspan fill="#8a93b8">1.9%</tspan></text><circle cx="200" cy="173" r="5" fill="#89e051"/><text x="212" y="177" font-family="Segoe UI,sans-serif" font-size="12" fill="#c0caf5">Shell <tspan fill="#8a93b8">1.3%</tspan></text><circle cx="200" cy="190" r="5" fill="#565f89"/><text x="212" y="194" font-family="Segoe UI,sans-serif" font-size="12" fill="#c0caf5">Other <tspan fill="#8a93b8">1.2%</tspan></text></svg>